<svg xmlns="http://www.w3.org/2000/svg" version="1.1" xmlns:xlink="http://www.w3.org/1999/xlink" xmlns:svgjs="http://svgjs.dev/svgjs" width="1500" height="821" viewBox="0 0 1500 821"><g transform="matrix(1,0,0,1,-0.9090909090909918,0.855164609736903)"><svg viewBox="0 0 396 217" data-background-color="#fefbf6" preserveAspectRatio="xMidYMid meet" height="821" width="1500" xmlns="http://www.w3.org/2000/svg" xmlns:xlink="http://www.w3.org/1999/xlink"><g id="tight-bounds" transform="matrix(1,0,0,1,0.2400000000000091,-0.2260301100035349)"><svg viewBox="0 0 395.52 217.45206022000707" height="217.45206022000707" width="395.52"><g><svg viewBox="0 0 395.52 217.45206022000707" height="217.45206022000707" width="395.52"><g transform="matrix(1,0,0,1,0,161.79505423198313)"><svg viewBox="0 0 395.52 55.657005988023954" height="55.657005988023954" width="395.52"><g id="textblocktransform"><svg viewBox="0 0 395.52 55.657005988023954" height="55.657005988023954" width="395.52" id="textblock"><g><svg viewBox="0 0 395.52 55.657005988023954" height="55.657005988023954" width="395.52"><g transform="matrix(1,0,0,1,0,0)"><svg width="395.52" viewBox="2.5 -37 267.18 37.6" height="55.657005988023954" data-palette-color="#29231d"><path d="M19 0.6L19 0.6Q15.1 0.6 12.05-0.83 9-2.25 6.88-4.73 4.75-7.2 3.63-10.5 2.5-13.8 2.5-17.55L2.5-17.55Q2.5-22.7 4.48-26.78 6.45-30.85 10.15-33.23 13.85-35.6 19-35.6L19-35.6Q22.85-35.6 25.93-34.2 29-32.8 31.15-30.3 33.3-27.8 34.43-24.55 35.55-21.3 35.55-17.55L35.55-17.55Q35.55-13.8 34.43-10.5 33.3-7.2 31.15-4.73 29-2.25 25.95-0.83 22.9 0.6 19 0.6ZM19-3.5L19-3.5Q22.85-3.5 25.45-5.35 28.05-7.2 29.38-10.38 30.7-13.55 30.7-17.55L30.7-17.55Q30.7-20.25 29.9-22.75 29.1-25.25 27.6-27.23 26.1-29.2 23.93-30.35 21.75-31.5 19-31.5L19-31.5Q15.35-31.5 12.73-29.65 10.1-27.8 8.72-24.65 7.35-21.5 7.35-17.55L7.35-17.55Q7.35-14.85 8.13-12.33 8.9-9.8 10.4-7.8 11.9-5.8 14.08-4.65 16.25-3.5 19-3.5ZM51.15 0.6L51.15 0.6Q47.4 0.6 45.22-1.88 43.05-4.35 43.05-8.95L43.05-8.95 43.05-21.15 38.55-21.15 38.55-25.05 43.15-25.05 44.1-33.25 47.55-33.25 47.55-25.05 54.75-25.05 54.75-21.15 47.55-21.15 47.55-8.6Q47.55-5.7 48.77-4.55 50-3.4 51.7-3.4L51.7-3.4Q52.95-3.4 54.07-3.8 55.2-4.2 56.15-4.75L56.15-4.75 57.4-1.15Q56.4-0.55 54.7 0.03 53 0.6 51.15 0.6ZM70.85 0.6L70.85 0.6Q67.6 0.6 64.95-1.05 62.3-2.7 60.72-5.73 59.15-8.75 59.15-12.85L59.15-12.85Q59.15-16.75 60.72-19.85 62.3-22.95 65.07-24.78 67.85-26.6 71.45-26.6L71.45-26.6Q73.7-26.6 75.52-25.83 77.35-25.05 78.7-23.9L78.7-23.9 78.7-26 82.8-26 82.8-6.3Q82.8-4.4 83.72-3.83 84.65-3.25 85.75-3.25L85.75-3.25 84.8 0.25Q80 0.25 79-3.65L79-3.65Q77.85-2.05 75.87-0.73 73.9 0.6 70.85 0.6ZM71.85-3.4L71.85-3.4Q73.75-3.4 75.45-4.33 77.15-5.25 78.3-6.65L78.3-6.65 78.3-20.6Q76.95-21.55 75.32-22.13 73.7-22.7 71.9-22.7L71.9-22.7Q69.5-22.7 67.67-21.48 65.85-20.25 64.8-18.07 63.75-15.9 63.75-13L63.75-13Q63.75-10.2 64.8-8.03 65.85-5.85 67.7-4.63 69.55-3.4 71.85-3.4ZM112.79-2.5L109.69 0.5 96.24-13.35 96.24 0 91.74 0 91.74-37 96.24-37 96.24-15.85 107.99-26.5 110.59-23.65 100.54-14.75 112.79-2.5ZM125.79 0.6L125.79 0.6Q123.54 0.6 121.54-0.35 119.54-1.3 118.29-3.43 117.04-5.55 117.04-9.1L117.04-9.1 117.04-26 121.54-26 121.54-9.7Q121.54-6.65 122.84-5.03 124.14-3.4 126.64-3.4L126.64-3.4Q128.69-3.4 130.62-4.23 132.54-5.05 134.04-6.45L134.04-6.45 134.04-26 138.54-26 138.54-6.75Q138.54-4.6 139.47-3.93 140.39-3.25 141.49-3.25L141.49-3.25 140.54 0.25Q135.89 0.25 134.79-3.45L134.79-3.45Q133.04-1.65 130.74-0.53 128.44 0.6 125.79 0.6ZM162.49 0.6L162.49 0.6Q158.59 0.6 155.54-0.83 152.49-2.25 150.36-4.73 148.24-7.2 147.11-10.5 145.99-13.8 145.99-17.55L145.99-17.55Q145.99-22.7 147.96-26.78 149.94-30.85 153.64-33.23 157.34-35.6 162.49-35.6L162.49-35.6Q166.34-35.6 169.41-34.2 172.49-32.8 174.64-30.3 176.79-27.8 177.91-24.55 179.04-21.3 179.04-17.55L179.04-17.55Q179.04-13.8 177.91-10.5 176.79-7.2 174.64-4.73 172.49-2.25 169.44-0.83 166.39 0.6 162.49 0.6ZM162.49-3.5L162.49-3.5Q166.34-3.5 168.94-5.35 171.54-7.2 172.86-10.38 174.19-13.55 174.19-17.55L174.19-17.55Q174.19-20.25 173.39-22.75 172.59-25.25 171.09-27.23 169.59-29.2 167.41-30.35 165.24-31.5 162.49-31.5L162.49-31.5Q158.84-31.5 156.21-29.65 153.59-27.8 152.21-24.65 150.84-21.5 150.84-17.55L150.84-17.55Q150.84-14.85 151.61-12.33 152.39-9.8 153.89-7.8 155.39-5.8 157.56-4.65 159.74-3.5 162.49-3.5ZM195.49 0.6L195.49 0.6Q192.24 0.6 189.59-1.05 186.94-2.7 185.36-5.73 183.79-8.75 183.79-12.85L183.79-12.85Q183.79-16.75 185.36-19.85 186.94-22.95 189.71-24.78 192.49-26.6 196.09-26.6L196.09-26.6Q198.34-26.6 200.16-25.83 201.99-25.05 203.34-23.9L203.34-23.9 203.34-26 207.44-26 207.44-6.3Q207.44-4.4 208.36-3.83 209.29-3.25 210.39-3.25L210.39-3.25 209.44 0.25Q204.64 0.25 203.64-3.65L203.64-3.65Q202.49-2.05 200.51-0.73 198.54 0.6 195.49 0.6ZM196.49-3.4L196.49-3.4Q198.39-3.4 200.09-4.33 201.79-5.25 202.94-6.65L202.94-6.65 202.94-20.6Q201.59-21.55 199.96-22.13 198.34-22.7 196.54-22.7L196.54-22.7Q194.14-22.7 192.31-21.48 190.49-20.25 189.44-18.07 188.39-15.9 188.39-13L188.39-13Q188.39-10.2 189.44-8.03 190.49-5.85 192.34-4.63 194.19-3.4 196.49-3.4ZM223.38 0.6L223.38 0.6Q220.43 0.6 218.06-0.15 215.68-0.9 214.13-2.1L214.13-2.1 216.03-5.85Q217.33-4.75 219.31-4.03 221.28-3.3 223.53-3.3L223.53-3.3Q226.33-3.3 227.76-4.23 229.18-5.15 229.18-6.6L229.18-6.6Q229.18-7.65 228.66-8.45 228.13-9.25 226.73-10.03 225.33-10.8 222.68-11.7L222.68-11.7Q219.03-12.95 217.21-14.68 215.38-16.4 215.38-19.45L215.38-19.45Q215.38-22.45 218.01-24.53 220.63-26.6 225.28-26.6L225.28-26.6Q227.78-26.6 229.73-26.08 231.68-25.55 233.23-24.75L233.23-24.75 231.98-21.05Q230.63-21.85 228.91-22.35 227.18-22.85 225.08-22.85L225.08-22.85Q222.48-22.85 221.13-21.8 219.78-20.75 219.78-19.5L219.78-19.5Q219.78-18.3 220.83-17.45 221.88-16.6 224.93-15.6L224.93-15.6Q229.88-13.95 231.83-11.95 233.78-9.95 233.78-6.95L233.78-6.95Q233.78-3.45 230.96-1.43 228.13 0.6 223.38 0.6ZM244.28 0L239.78 0 239.78-26 244.28-26 244.28 0ZM242.03-30.45L242.03-30.45Q240.73-30.45 239.81-31.4 238.88-32.35 238.88-33.6L238.88-33.6Q238.88-35.05 239.73-35.9 240.58-36.75 242.03-36.75L242.03-36.75Q243.33-36.75 244.26-35.83 245.18-34.9 245.18-33.6L245.18-33.6Q245.18-32.2 244.33-31.33 243.48-30.45 242.03-30.45ZM259.28 0.6L259.28 0.6Q256.33 0.6 253.95-0.15 251.58-0.9 250.03-2.1L250.03-2.1 251.93-5.85Q253.23-4.75 255.2-4.03 257.18-3.3 259.43-3.3L259.43-3.3Q262.23-3.3 263.65-4.23 265.08-5.15 265.08-6.6L265.08-6.6Q265.08-7.65 264.55-8.45 264.03-9.25 262.63-10.03 261.23-10.8 258.58-11.7L258.58-11.7Q254.93-12.95 253.1-14.68 251.28-16.4 251.28-19.45L251.28-19.45Q251.28-22.45 253.9-24.53 256.53-26.6 261.18-26.6L261.18-26.6Q263.68-26.6 265.63-26.08 267.58-25.55 269.13-24.75L269.13-24.75 267.88-21.05Q266.53-21.85 264.8-22.35 263.08-22.85 260.98-22.85L260.98-22.85Q258.38-22.85 257.03-21.8 255.68-20.75 255.68-19.5L255.68-19.5Q255.68-18.3 256.73-17.45 257.78-16.6 260.83-15.6L260.83-15.6Q265.78-13.95 267.73-11.95 269.68-9.95 269.68-6.95L269.68-6.95Q269.68-3.45 266.85-1.43 264.03 0.6 259.28 0.6Z" opacity="1" transform="matrix(1,0,0,1,0,0)" fill="#29231d" class="wordmark-text-0" data-fill-palette-color="primary" id="text-0"></path></svg></g></svg></g></svg></g></svg></g><g transform="matrix(1,0,0,1,130.00175622963718,0)"><svg viewBox="0 0 135.51648754072565 135.51648754072565" height="135.51648754072565" width="135.51648754072565"><g><svg></svg></g><g id="icon-0"><svg viewBox="0 0 135.51648754072565 135.51648754072565" height="135.51648754072565" width="135.51648754072565"><g><path d="M0 67.758c0-37.422 30.336-67.758 67.758-67.758 37.422 0 67.758 30.336 67.758 67.758 0 37.422-30.336 67.758-67.758 67.758-37.422 0-67.758-30.336-67.758-67.758zM67.758 130.497c34.65 0 62.739-28.089 62.739-62.739 0-34.65-28.089-62.739-62.739-62.739-34.65 0-62.739 28.089-62.739 62.739 0 34.65 28.089 62.739 62.739 62.739z" data-fill-palette-color="accent" fill="#97afaf" stroke="transparent"></path><ellipse rx="67.08066133265919" ry="67.08066133265919" cx="67.75824377036282" cy="67.75824377036282" fill="#97afaf" stroke="transparent" stroke-width="0" fill-opacity="1" data-fill-palette-color="accent"></ellipse></g><g transform="matrix(1,0,0,1,28.54667281395966,48.95760211983)"><svg viewBox="0 0 78.42314191280633 37.60128330106564" height="37.60128330106564" width="78.42314191280633"><g><svg xmlns="http://www.w3.org/2000/svg" xmlns:xlink="http://www.w3.org/1999/xlink" xmlns:a="http://ns.adobe.com/AdobeSVGViewerExtensions/3.0/" version="1.1" x="0" y="0" viewBox="0 0 97.42699999999999 46.713" enable-background="new -1.286 -24.917 100 100" xml:space="preserve" height="37.60128330106564" width="78.42314191280633" class="icon-cg-0" data-fill-palette-color="quaternary" id="cg-0"><path d="M35.03 35.148c-7.732-3.146-11.661-3.487-15.821-3.848-4.101-0.354-8.347-0.729-16.382-3.95-0.597 0.901-1.09 2.651-1.487 4.772 8.261 2.153 12.443 1.988 16.477 1.821 4.081-0.168 8.298-0.341 16.548 1.847 2.792 0.741 4.966 1.47 6.695 2.176C39.524 37.117 37.569 36.181 35.03 35.148z" fill="#fefbf6" data-fill-palette-color="quaternary"></path><path d="M34.048 37.982c-8.068-2.141-12.008-1.98-16.182-1.808-4.11 0.17-8.367 0.338-16.739-1.835-0.27 1.654-0.488 3.445-0.661 5.174 8.167 0.969 12.216 0.268 16.122-0.416 4.021-0.703 8.179-1.43 16.647-0.348 3.312 0.424 5.807 0.94 7.732 1.5C39.258 39.53 37.023 38.771 34.048 37.982z" fill="#fefbf6" data-fill-palette-color="quaternary"></path><path d="M16.801 41.31c-3.991 0.697-8.125 1.412-16.451 0.43C0.18 43.635 0.063 45.386 0 46.685c8.365-0.059 12.312-1.281 16.133-2.465 3.901-1.208 7.934-2.457 16.469-2.457 2.886 0 5.174 0.146 7.025 0.387-1.702-0.43-3.83-0.831-6.547-1.178C24.8 39.912 20.914 40.591 16.801 41.31z" fill="#fefbf6" data-fill-palette-color="quaternary"></path><path d="M79.611 33.969c4.043 0.165 8.232 0.333 16.533-1.835-0.41-2.307-0.904-4.096-1.479-4.783-8.078 3.246-12.334 3.619-16.447 3.975-4.16 0.361-8.09 0.7-15.822 3.849-2.539 1.034-4.496 1.97-6.031 2.821 1.729-0.707 3.904-1.438 6.699-2.178C71.312 33.628 75.531 33.802 79.611 33.969z" fill="#fefbf6" data-fill-palette-color="quaternary"></path><path d="M94.041 25.278L85.287 0c-6.336 2.515-9.715 2.807-12.984 3.09-3.342 0.289-6.498 0.562-12.707 3.089-8.611 3.506-9.078 5.696-9.328 6.873-0.121 0.565-0.264 1.197-1.038 1.609v28.725c0.004-0.006 0.012-0.012 0.017-0.02 0.036-0.052 0.068-0.115 0.1-0.184 0.065-0.158 0.114-0.348 0.174-0.625 0.39-1.831 1.042-4.896 12.414-9.523 7.904-3.22 12.111-3.583 16.18-3.936C82.107 28.753 86.234 28.397 94.041 25.278z" fill="#fefbf6" data-fill-palette-color="quaternary"></path><path d="M80.837 39.123c3.91 0.684 7.961 1.383 16.141 0.414-0.172-1.79-0.383-3.569-0.633-5.184-8.398 2.184-12.664 2.017-16.785 1.846-4.174-0.171-8.113-0.332-16.182 1.809-2.975 0.79-5.209 1.549-6.922 2.27 1.926-0.56 4.422-1.076 7.734-1.5C72.656 37.693 76.818 38.42 80.837 39.123z" fill="#fefbf6" data-fill-palette-color="quaternary"></path><path d="M81.294 44.247c3.82 1.183 7.768 2.406 16.133 2.466-0.072-1.51-0.188-3.213-0.336-4.948-8.334 0.985-12.473 0.269-16.465-0.429-4.113-0.719-7.998-1.397-16.279-0.338-2.715 0.348-4.844 0.75-6.545 1.178 1.85-0.238 4.137-0.387 7.023-0.387C73.361 41.789 77.394 43.039 81.294 44.247z" fill="#fefbf6" data-fill-palette-color="quaternary"></path><path d="M47.907 42.533c0.033 0.154 0.061 0.279 0.091 0.394V14.662c-0.774-0.412-0.917-1.044-1.037-1.609-0.251-1.177-0.717-3.367-9.329-6.873-6.209-2.527-9.365-2.8-12.706-3.089-3.27-0.283-6.647-0.576-12.981-3.089L3.382 25.25c7.81 3.121 11.938 3.479 15.933 3.824 4.068 0.353 8.274 0.717 16.179 3.934C46.866 37.636 47.518 40.702 47.907 42.533z" fill="#fefbf6" data-fill-palette-color="quaternary"></path></svg></g></svg></g></svg></g></svg></g><g></g></svg></g><defs></defs></svg><rect width="395.52" height="217.45206022000707" fill="none" stroke="none" visibility="hidden"></rect></g></svg></g></svg>